<svg width="190" height="30" viewBox="0 0 190 30" fill="none" xmlns="http://www.w3.org/2000/svg">
<g clip-path="url(#clip0_548_5931)">
<path d="M119.744 11.6924H95.7181V18.2627H119.744V11.6924Z" fill="#30EA03"/>
<path d="M53.505 22.5809L55.5404 29.0186H63.1218L53.9697 0.934888H42.6902L33.5382 29.0186H41.1196L43.1549 22.5809H53.505ZM45.296 16.2024L48.3298 6.89309C48.33 6.89309 51.3638 16.2024 51.3638 16.2024H45.296ZM140.301 0.268555C131.734 0.268555 124.789 6.85362 124.789 14.9768C124.789 23.0998 131.734 29.685 140.301 29.685C148.868 29.685 155.814 23.0999 155.814 14.9768C155.814 6.85362 148.869 0.268555 140.301 0.268555ZM140.301 23.365C135.668 23.365 131.913 19.6095 131.913 14.9768C131.913 10.344 135.668 6.58849 140.301 6.58849C144.934 6.58849 148.689 10.344 148.689 14.9768C148.689 19.6095 144.934 23.365 140.301 23.365ZM68.0092 0.934888H75.1432V22.4481H90.6977L90.6974 29.0186H68.0091V0.934888H68.0092ZM95.7181 0.933955H119.748V7.50429H95.7181V0.933955ZM95.7181 22.448L119.748 22.4482V29.0186H95.7181V22.448ZM167.993 29.0177H160.859V0.933955H167.993L182.11 18.5244V0.933955H189.243V29.0178H182.109L167.993 11.4268V29.0177ZM21.5171 0.934954H28.6509V29.0188H21.5171V18.2618H7.40065V29.0187H0.266846V0.934954H7.40065V11.6915H21.5172V0.934954H21.5171Z" fill="white"/>
</g>
<defs>
<clipPath id="clip0_548_5931">
<rect width="189.333" height="30" fill="white"/>
</clipPath>
</defs>
</svg>
